<mxfile host="app.diagrams.net" agent="Mozilla/5.0 (Windows NT 10.0; Win64; x64) AppleWebKit/537.36 (KHTML, like Gecko) Chrome/129.0.0.0 Safari/537.36" version="24.7.17">
  <diagram name="Manufacturing Process BPMN" id="tQEFrsimub_-NjzGZvVE">
    <mxGraphModel dx="2048" dy="725" grid="1" gridSize="10" guides="1" tooltips="1" connect="1" arrows="1" fold="1" page="1" pageScale="1" pageWidth="827" pageHeight="1169" math="0" shadow="0">
      <root>
        <mxCell id="0" />
        <mxCell id="1" parent="0" />
        <mxCell id="prYCgUCqdU0S5GqHGBsI-105" value="" style="ellipse;whiteSpace=wrap;html=1;aspect=fixed;" parent="1" vertex="1">
          <mxGeometry x="-60" y="50" width="40" height="40" as="geometry" />
        </mxCell>
        <mxCell id="prYCgUCqdU0S5GqHGBsI-106" value="Check parts availability" style="rounded=1;whiteSpace=wrap;html=1;fontSize=12;" parent="1" vertex="1">
          <mxGeometry x="10" y="40" width="160" height="60" as="geometry" />
        </mxCell>
        <mxCell id="prYCgUCqdU0S5GqHGBsI-107" style="edgeStyle=orthogonalEdgeStyle;html=1;" parent="1" source="prYCgUCqdU0S5GqHGBsI-105" target="prYCgUCqdU0S5GqHGBsI-106" edge="1">
          <mxGeometry relative="1" as="geometry" />
        </mxCell>
        <mxCell id="prYCgUCqdU0S5GqHGBsI-129" style="edgeStyle=orthogonalEdgeStyle;rounded=0;orthogonalLoop=1;jettySize=auto;html=1;" parent="1" source="prYCgUCqdU0S5GqHGBsI-108" edge="1">
          <mxGeometry relative="1" as="geometry">
            <mxPoint x="510" y="70" as="targetPoint" />
          </mxGeometry>
        </mxCell>
        <mxCell id="prYCgUCqdU0S5GqHGBsI-141" style="edgeStyle=orthogonalEdgeStyle;rounded=0;orthogonalLoop=1;jettySize=auto;html=1;curved=1;strokeColor=none;" parent="1" source="prYCgUCqdU0S5GqHGBsI-108" edge="1">
          <mxGeometry relative="1" as="geometry">
            <mxPoint x="400" y="160" as="targetPoint" />
          </mxGeometry>
        </mxCell>
        <mxCell id="prYCgUCqdU0S5GqHGBsI-144" value="Yes" style="edgeLabel;html=1;align=center;verticalAlign=middle;resizable=0;points=[];" parent="prYCgUCqdU0S5GqHGBsI-141" vertex="1" connectable="0">
          <mxGeometry x="-0.208" y="2" relative="1" as="geometry">
            <mxPoint x="-2" as="offset" />
          </mxGeometry>
        </mxCell>
        <mxCell id="prYCgUCqdU0S5GqHGBsI-145" style="edgeStyle=orthogonalEdgeStyle;rounded=0;orthogonalLoop=1;jettySize=auto;html=1;exitX=0.5;exitY=1;exitDx=0;exitDy=0;startSize=0;endSize=6;" parent="1" source="prYCgUCqdU0S5GqHGBsI-108" edge="1">
          <mxGeometry relative="1" as="geometry">
            <mxPoint x="400" y="160" as="targetPoint" />
          </mxGeometry>
        </mxCell>
        <mxCell id="prYCgUCqdU0S5GqHGBsI-108" value="" style="rhombus;whiteSpace=wrap;html=1;" parent="1" vertex="1">
          <mxGeometry x="360" y="30" width="80" height="80" as="geometry" />
        </mxCell>
        <mxCell id="prYCgUCqdU0S5GqHGBsI-110" value="Produce list and order parts" style="rounded=1;whiteSpace=wrap;html=1;fontSize=12;" parent="1" vertex="1">
          <mxGeometry x="510" y="40" width="160" height="60" as="geometry" />
        </mxCell>
        <mxCell id="prYCgUCqdU0S5GqHGBsI-112" value="Send delivery schedule" style="rounded=1;whiteSpace=wrap;html=1;fontSize=12;" parent="1" vertex="1">
          <mxGeometry x="710" y="40" width="180" height="60" as="geometry" />
        </mxCell>
        <mxCell id="prYCgUCqdU0S5GqHGBsI-113" style="edgeStyle=orthogonalEdgeStyle;html=1;" parent="1" source="prYCgUCqdU0S5GqHGBsI-110" target="prYCgUCqdU0S5GqHGBsI-112" edge="1">
          <mxGeometry relative="1" as="geometry" />
        </mxCell>
        <mxCell id="prYCgUCqdU0S5GqHGBsI-114" value="Produce work order" style="rounded=1;whiteSpace=wrap;html=1;fontSize=12;" parent="1" vertex="1">
          <mxGeometry x="20" y="220" width="160" height="60" as="geometry" />
        </mxCell>
        <mxCell id="prYCgUCqdU0S5GqHGBsI-137" style="edgeStyle=orthogonalEdgeStyle;rounded=0;orthogonalLoop=1;jettySize=auto;html=1;" parent="1" source="prYCgUCqdU0S5GqHGBsI-117" edge="1">
          <mxGeometry relative="1" as="geometry">
            <mxPoint x="570" y="250" as="targetPoint" />
          </mxGeometry>
        </mxCell>
        <mxCell id="prYCgUCqdU0S5GqHGBsI-117" value="Produce product delivery schedule" style="rounded=1;whiteSpace=wrap;html=1;fontSize=12;" parent="1" vertex="1">
          <mxGeometry x="250" y="220" width="200" height="60" as="geometry" />
        </mxCell>
        <mxCell id="prYCgUCqdU0S5GqHGBsI-118" style="edgeStyle=orthogonalEdgeStyle;html=1;" parent="1" source="prYCgUCqdU0S5GqHGBsI-114" target="prYCgUCqdU0S5GqHGBsI-117" edge="1">
          <mxGeometry relative="1" as="geometry" />
        </mxCell>
        <mxCell id="prYCgUCqdU0S5GqHGBsI-146" style="rounded=0;orthogonalLoop=1;jettySize=auto;html=1;edgeStyle=elbowEdgeStyle;elbow=vertical;entryX=0.438;entryY=0;entryDx=0;entryDy=0;entryPerimeter=0;" parent="1" source="prYCgUCqdU0S5GqHGBsI-119" target="prYCgUCqdU0S5GqHGBsI-121" edge="1">
          <mxGeometry relative="1" as="geometry">
            <mxPoint x="900" y="360" as="targetPoint" />
          </mxGeometry>
        </mxCell>
        <mxCell id="prYCgUCqdU0S5GqHGBsI-119" value="Receive parts from supplier" style="rounded=1;whiteSpace=wrap;html=1;fontSize=12;" parent="1" vertex="1">
          <mxGeometry x="810" y="220" width="180" height="60" as="geometry" />
        </mxCell>
        <mxCell id="prYCgUCqdU0S5GqHGBsI-121" value="Assemble products" style="rounded=1;whiteSpace=wrap;html=1;fontSize=12;" parent="1" vertex="1">
          <mxGeometry x="130" y="410" width="160" height="60" as="geometry" />
        </mxCell>
        <mxCell id="prYCgUCqdU0S5GqHGBsI-123" value="Deliver products to warehouse" style="rounded=1;whiteSpace=wrap;html=1;fontSize=12;" parent="1" vertex="1">
          <mxGeometry x="330" y="410" width="200" height="60" as="geometry" />
        </mxCell>
        <mxCell id="prYCgUCqdU0S5GqHGBsI-124" style="edgeStyle=orthogonalEdgeStyle;html=1;" parent="1" source="prYCgUCqdU0S5GqHGBsI-121" target="prYCgUCqdU0S5GqHGBsI-123" edge="1">
          <mxGeometry relative="1" as="geometry" />
        </mxCell>
        <mxCell id="prYCgUCqdU0S5GqHGBsI-125" value="Complete work order" style="rounded=1;whiteSpace=wrap;html=1;fontSize=12;" parent="1" vertex="1">
          <mxGeometry x="620" y="410" width="160" height="60" as="geometry" />
        </mxCell>
        <mxCell id="prYCgUCqdU0S5GqHGBsI-126" style="edgeStyle=orthogonalEdgeStyle;html=1;" parent="1" source="prYCgUCqdU0S5GqHGBsI-123" target="prYCgUCqdU0S5GqHGBsI-125" edge="1">
          <mxGeometry relative="1" as="geometry" />
        </mxCell>
        <mxCell id="prYCgUCqdU0S5GqHGBsI-128" style="edgeStyle=orthogonalEdgeStyle;html=1;" parent="1" source="prYCgUCqdU0S5GqHGBsI-125" edge="1">
          <mxGeometry relative="1" as="geometry">
            <mxPoint x="880" y="440" as="targetPoint" />
          </mxGeometry>
        </mxCell>
        <mxCell id="prYCgUCqdU0S5GqHGBsI-130" value="No" style="text;html=1;align=center;verticalAlign=middle;whiteSpace=wrap;rounded=0;" parent="1" vertex="1">
          <mxGeometry x="440" y="55" width="60" height="30" as="geometry" />
        </mxCell>
        <mxCell id="prYCgUCqdU0S5GqHGBsI-136" style="edgeStyle=orthogonalEdgeStyle;rounded=0;orthogonalLoop=1;jettySize=auto;html=1;exitX=0.5;exitY=1;exitDx=0;exitDy=0;entryX=0.71;entryY=-0.017;entryDx=0;entryDy=0;entryPerimeter=0;" parent="1" source="prYCgUCqdU0S5GqHGBsI-112" target="prYCgUCqdU0S5GqHGBsI-114" edge="1">
          <mxGeometry relative="1" as="geometry" />
        </mxCell>
        <mxCell id="prYCgUCqdU0S5GqHGBsI-139" style="edgeStyle=orthogonalEdgeStyle;rounded=0;orthogonalLoop=1;jettySize=auto;html=1;entryX=0;entryY=0.5;entryDx=0;entryDy=0;" parent="1" source="prYCgUCqdU0S5GqHGBsI-138" target="prYCgUCqdU0S5GqHGBsI-119" edge="1">
          <mxGeometry relative="1" as="geometry">
            <mxPoint x="800" y="250" as="targetPoint" />
          </mxGeometry>
        </mxCell>
        <mxCell id="prYCgUCqdU0S5GqHGBsI-138" value="Send to customer" style="rounded=1;whiteSpace=wrap;html=1;fontSize=12;" parent="1" vertex="1">
          <mxGeometry x="570" y="220" width="180" height="60" as="geometry" />
        </mxCell>
        <mxCell id="prYCgUCqdU0S5GqHGBsI-140" value="" style="points=[[0.145,0.145,0],[0.5,0,0],[0.855,0.145,0],[1,0.5,0],[0.855,0.855,0],[0.5,1,0],[0.145,0.855,0],[0,0.5,0]];shape=mxgraph.bpmn.event;html=1;verticalLabelPosition=bottom;labelBackgroundColor=#ffffff;verticalAlign=top;align=center;perimeter=ellipsePerimeter;outlineConnect=0;aspect=fixed;outline=end;symbol=terminate2;" parent="1" vertex="1">
          <mxGeometry x="880" y="415" width="50" height="50" as="geometry" />
        </mxCell>
        <mxCell id="cQ-86mupQ4cBAvTC2wsX-2" style="edgeStyle=orthogonalEdgeStyle;rounded=0;orthogonalLoop=1;jettySize=auto;html=1;entryX=0;entryY=0.5;entryDx=0;entryDy=0;" edge="1" parent="1" source="cQ-86mupQ4cBAvTC2wsX-1" target="prYCgUCqdU0S5GqHGBsI-108">
          <mxGeometry relative="1" as="geometry" />
        </mxCell>
        <mxCell id="cQ-86mupQ4cBAvTC2wsX-1" value="Check if parts in stock" style="points=[[0.25,0,0],[0.5,0,0],[0.75,0,0],[1,0.25,0],[1,0.5,0],[1,0.75,0],[0.75,1,0],[0.5,1,0],[0.25,1,0],[0,0.75,0],[0,0.5,0],[0,0.25,0]];shape=mxgraph.bpmn.task;whiteSpace=wrap;rectStyle=rounded;size=10;html=1;container=1;expand=0;collapsible=0;taskMarker=abstract;" vertex="1" parent="1">
          <mxGeometry x="210" y="42.5" width="120" height="55" as="geometry" />
        </mxCell>
        <mxCell id="cQ-86mupQ4cBAvTC2wsX-3" style="edgeStyle=orthogonalEdgeStyle;rounded=0;orthogonalLoop=1;jettySize=auto;html=1;entryX=0;entryY=0.5;entryDx=0;entryDy=0;entryPerimeter=0;" edge="1" parent="1" source="prYCgUCqdU0S5GqHGBsI-106" target="cQ-86mupQ4cBAvTC2wsX-1">
          <mxGeometry relative="1" as="geometry" />
        </mxCell>
      </root>
    </mxGraphModel>
  </diagram>
</mxfile>
